<svg width="294" height="39" viewBox="0 0 294 39" fill="none" xmlns="http://www.w3.org/2000/svg">
<rect x="1.5" y="1.5" width="291" height="36" fill="white"/>
<rect x="1.5" y="1.5" width="291" height="36" stroke="black" stroke-width="2"/>
<path d="M134.75 25.25V23.5H133V14.75H134.75V13H143.5V14.75H145.25V23.5H143.5V25.25H134.75ZM136.5 23.5H141.75V14.75H136.5V23.5ZM152.25 16.5H154V18.25H155.75V20H157.5V23.5H159.25V25.25H155.75V23.5H154V20H150.5V25.25H147V13H150.5V18.25H152.25V16.5ZM159.25 13V14.75H157.5V16.5H154V14.75H155.75V13H159.25Z" fill="black"/>
</svg>
