<svg width="195" height="57" viewBox="0 0 195 57" fill="none" xmlns="http://www.w3.org/2000/svg">
<path d="M0.5 12.75V0.5H11V2.25H12.75V5.75H11V7.5H12.75V11H11V12.75H0.5ZM4 5.75H9.25V2.25H4V5.75ZM4 11H9.25V7.5H4V11ZM18 12.75V11H16.25V9.25H14.5V4H16.25V2.25H18V0.5H25V2.25H26.75V4H23.25V2.25H19.75V4H18V9.25H19.75V11H23.25V9.25H26.75V11H25V12.75H18ZM33.75 12.75V2.25H30.25V0.5H40.75V2.25H37.25V12.75H33.75ZM42.5 12.75V4H44.25V2.25H46V0.5H51.25V2.25H53V4H54.75V12.75H51.25V9.25H46V12.75H42.5ZM46 7.5H51.25V4H49.5V2.25H47.75V4H46V7.5ZM56.5 12.75V0.5H67V2.25H68.75V5.75H67V7.5H68.75V11H67V12.75H56.5ZM60 5.75H65.25V2.25H60V5.75ZM60 11H65.25V7.5H60V11ZM70.5 12.75V0.5H74V4H81V5.75H82.75V11H81V12.75H70.5ZM74 11H79.25V5.75H74V11ZM89.75 12.75V2.25H86.25V0.5H96.75V2.25H93.25V12.75H89.75ZM98.5 12.75V0.5H110.75V2.25H102V5.75H109V7.5H102V11H110.75V12.75H98.5ZM0.5 35.5V32H2.25V28.5H4V21.5H12.75V32H14.5V35.5H11V33.75H4V35.5H0.5ZM5.75 32H9.25V23.25H5.75V32ZM14.5 33.75V21.5H18V28.5H19.75V26.75H21.5V25H23.25V21.5H26.75V33.75H23.25V28.5H21.5V30.25H19.75V32H18V33.75H14.5ZM32 33.75V32H30.25V30.25H28.5V25H30.25V23.25H32V21.5H39V23.25H40.75V25H37.25V23.25H33.75V25H32V30.25H33.75V32H37.25V30.25H40.75V32H39V33.75H32ZM47.75 25H49.5V26.75H51.25V28.5H53V32H54.75V33.75H51.25V32H49.5V28.5H46V33.75H42.5V21.5H46V26.75H47.75V25ZM54.75 21.5V23.25H53V25H49.5V23.25H51.25V21.5H54.75ZM56.5 33.75V21.5H68.75V23.25H60V26.75H67V28.5H60V32H68.75V33.75H56.5ZM75.75 33.75V23.25H72.25V21.5H82.75V23.25H79.25V33.75H75.75ZM86.25 33.75V32H84.5V30.25H88V32H93.25V28.5H86.25V26.75H84.5V21.5H88V26.75H93.25V21.5H96.75V32H95V33.75H86.25ZM100.25 35.5V33.75H102V30.25H105.5V33.75H103.75V35.5H100.25ZM135.25 33.75V28.5H128.25V26.75H126.5V21.5H130V26.75H135.25V21.5H138.75V33.75H135.25ZM145.75 33.75V23.25H142.25V21.5H152.75V23.25H149.25V33.75H145.75ZM156.25 33.75V32H154.5V23.25H156.25V21.5H165V23.25H166.75V32H165V33.75H156.25ZM158 32H163.25V23.25H158V32ZM168.5 33.75V21.5H179V23.25H172V26.75H179V28.5H180.75V32H179V33.75H168.5ZM172 32H177.25V28.5H172V32ZM182.5 33.75V21.5H186V25H189.5V33.75H182.5ZM191.25 33.75V21.5H194.75V33.75H191.25ZM186 32H187.75V26.75H186V32ZM0.5 54.75V42.5H12.75V54.75H9.25V44.25H4V54.75H0.5ZM14.5 54.75V42.5H25V44.25H26.75V49.5H25V51.25H18V54.75H14.5ZM18 49.5H23.25V44.25H18V49.5ZM30.25 54.75V53H28.5V44.25H30.25V42.5H39V44.25H40.75V53H39V54.75H30.25ZM32 53H37.25V44.25H32V53ZM42.5 56.5V53H44.25V49.5H46V42.5H54.75V53H56.5V56.5H53V54.75H46V56.5H42.5ZM47.75 53H51.25V44.25H47.75V53ZM58.25 54.75V53H56.5V44.25H58.25V42.5H67V44.25H68.75V53H67V54.75H58.25ZM60 53H65.25V44.25H60V53ZM70.5 54.75V51.25H72.25V49.5H74V42.5H82.75V54.75H79.25V44.25H75.75V53H74V54.75H70.5ZM88 42.5V47.75H86.25V46H84.5V42.5H88ZM91.5 47.75H93.25V49.5H91.5V54.75H89.75V49.5H88V47.75H89.75V42.5H91.5V47.75ZM96.75 42.5V46H95V47.75H93.25V42.5H96.75ZM86.25 49.5H88V54.75H84.5V51.25H86.25V49.5ZM93.25 54.75V49.5H95V51.25H96.75V54.75H93.25ZM98.5 54.75V42.5H102V49.5H103.75V47.75H105.5V46H107.25V42.5H110.75V54.75H107.25V49.5H105.5V51.25H103.75V53H102V54.75H98.5ZM117.75 54.75V44.25H114.25V42.5H124.75V44.25H121.25V54.75H117.75ZM126.5 54.75V42.5H130V46H137V47.75H138.75V53H137V54.75H126.5ZM130 53H135.25V47.75H130V53Z" fill="black"/>
</svg>
